<svg xmlns="http://www.w3.org/2000/svg" viewBox="0 0 32 32">
  <!-- 입술 + 혀 — 큐피드 보우 윗입술, 아랫입술, 혀 -->
  <!-- 윗입술 (큐피드 보우) -->
  <path d="M5 14 Q7 8 12 12 Q14 14 16 12.5 Q18 14 20 12 Q25 8 27 14 Q23 17 16 17 Q9 17 5 14Z" fill="#cc3344"/>
  <!-- 아랫입술 -->
  <path d="M5 14 Q9 17 16 17 Q23 17 27 14 Q25 24 16 25 Q7 24 5 14Z" fill="#dd4455"/>
  <!-- 혀 -->
  <path d="M11 17 C10 23 13 29 16 29 C19 29 22 23 21 17Z" fill="#ff9966"/>
  <line x1="16" y1="19" x2="16" y2="28" stroke="#cc5500" stroke-width="1.4" stroke-linecap="round"/>
</svg>
