<svg xmlns="http://www.w3.org/2000/svg" viewBox="0 0 32 32">
  <!-- 불꽃 = 혀 — 세 불꽃, 가운데가 혀 형태의 오렌지색 -->
  <!-- 왼쪽 작은 불꽃 -->
  <path d="M9 29 C6 29 4 24 5 19 C6 14 9 11 8.5 6.5 C10.5 9.5 10 14 10 19 C10 24 10 28 9 29Z" fill="#ffcc44" opacity="0.65"/>
  <!-- 오른쪽 작은 불꽃 -->
  <path d="M23 29 C26 29 28 24 27 19 C26 14 23 11 23.5 6.5 C21.5 9.5 22 14 22 19 C22 24 22 28 23 29Z" fill="#ffcc44" opacity="0.65"/>
  <!-- 가운데 혀-불꽃 (크고 오렌지) -->
  <path d="M12 31 C11 27 11 21 13 16 C14.5 12 14 7.5 16 4 C18 7.5 17.5 12 19 16 C21 21 21 27 20 31 C19 32 17 32 16 32 C15 32 13 32 12 31Z" fill="#ff9966"/>
  <line x1="16" y1="11" x2="16" y2="31" stroke="#cc5500" stroke-width="1.4" stroke-linecap="round"/>
</svg>
