<svg xmlns="http://www.w3.org/2000/svg" viewBox="0 0 40 40" width="40" height="40">
  <defs>
    <radialGradient id="it-cr" cx="50%" cy="50%" r="50%"><stop offset="70%" stop-color="#d4956a" stop-opacity="0"/><stop offset="79%" stop-color="#d4956a"/><stop offset="100%" stop-color="#9a5520"/></radialGradient>
    <radialGradient id="it-sc" cx="45%" cy="40%" r="60%"><stop offset="0%" stop-color="#e53e3e"/><stop offset="100%" stop-color="#9b1c1c"/></radialGradient>
  </defs>
  <ellipse cx="20" cy="37" rx="13" ry="2" fill="#000" opacity="0.15"/>
  <circle cx="20" cy="20" r="17" fill="#c8874a"/>
  <circle cx="20" cy="20" r="17" fill="url(#it-cr)"/>
  <circle cx="9"  cy="11" r="1.1" fill="#8b4010" opacity="0.5"/>
  <circle cx="28" cy="7"  r="0.9" fill="#8b4010" opacity="0.5"/>
  <circle cx="33" cy="22" r="1.1" fill="#8b4010" opacity="0.4"/>
  <circle cx="30" cy="32" r="0.9" fill="#8b4010" opacity="0.5"/>
  <circle cx="11" cy="31" r="1.1" fill="#8b4010" opacity="0.4"/>
  <circle cx="6"  cy="18" r="0.9" fill="#8b4010" opacity="0.5"/>
  <circle cx="20" cy="20" r="14" fill="url(#it-sc)"/>
  <circle cx="13" cy="13" r="2.2" fill="#c0392b" opacity="0.45"/>
  <circle cx="27" cy="14" r="1.8" fill="#c0392b" opacity="0.4"/>
  <circle cx="28" cy="27" r="2.2" fill="#c0392b" opacity="0.45"/>
  <circle cx="12" cy="27" r="1.8" fill="#c0392b" opacity="0.4"/>
  <!-- 모짜렐라 1 -->
  <ellipse cx="20" cy="13" rx="4.5" ry="3.2" fill="#f0ebe0" transform="rotate(-12,20,13)"/>
  <ellipse cx="20" cy="13" rx="3.6" ry="2.5" fill="#faf6ee" transform="rotate(-12,20,13)"/>
  <ellipse cx="19" cy="12" rx="1.3" ry="0.9" fill="#ffffff" opacity="0.75" transform="rotate(-12,19,12)"/>
  <!-- 모짜렐라 2 -->
  <ellipse cx="28" cy="19" rx="4.0" ry="2.8" fill="#f0ebe0" transform="rotate(18,28,19)"/>
  <ellipse cx="28" cy="19" rx="3.1" ry="2.1" fill="#faf6ee" transform="rotate(18,28,19)"/>
  <ellipse cx="27" cy="18" rx="1.1" ry="0.8" fill="#ffffff" opacity="0.75"/>
  <!-- 모짜렐라 3 -->
  <ellipse cx="24" cy="28" rx="4.2" ry="2.9" fill="#f0ebe0" transform="rotate(8,24,28)"/>
  <ellipse cx="24" cy="28" rx="3.3" ry="2.2" fill="#faf6ee" transform="rotate(8,24,28)"/>
  <ellipse cx="23" cy="27" rx="1.1" ry="0.8" fill="#ffffff" opacity="0.75"/>
  <!-- 모짜렐라 4 -->
  <ellipse cx="13" cy="26" rx="3.8" ry="2.6" fill="#f0ebe0" transform="rotate(-12,13,26)"/>
  <ellipse cx="13" cy="26" rx="3.0" ry="2.0" fill="#faf6ee" transform="rotate(-12,13,26)"/>
  <ellipse cx="12" cy="25" rx="1.0" ry="0.7" fill="#ffffff" opacity="0.75"/>
  <!-- 모짜렐라 5 -->
  <ellipse cx="12" cy="16" rx="3.5" ry="2.5" fill="#f0ebe0" transform="rotate(14,12,16)"/>
  <ellipse cx="12" cy="16" rx="2.7" ry="1.9" fill="#faf6ee" transform="rotate(14,12,16)"/>
  <ellipse cx="11" cy="15" rx="0.9" ry="0.7" fill="#ffffff" opacity="0.75"/>
  <!-- 바질 -->
  <ellipse cx="23" cy="17" rx="2.4" ry="1.0" fill="#166534" transform="rotate(-28,23,17)"/>
  <line x1="22" y1="16.2" x2="24" y2="17.8" stroke="#14532d" stroke-width="0.4" opacity="0.7"/>
  <ellipse cx="17" cy="22" rx="2.2" ry="0.9" fill="#15803d" transform="rotate(22,17,22)"/>
  <line x1="15.8" y1="21.5" x2="18.2" y2="22.5" stroke="#14532d" stroke-width="0.4" opacity="0.7"/>
  <ellipse cx="26" cy="24" rx="2.0" ry="0.8" fill="#166534" transform="rotate(-18,26,24)"/>
  <ellipse cx="15" cy="14" rx="1.8" ry="0.7" fill="#15803d" transform="rotate(38,15,14)"/>
  <ellipse cx="20" cy="21" rx="1.6" ry="0.7" fill="#166534" transform="rotate(5,20,21)"/>
  <!-- 후추 -->
  <circle cx="21" cy="19" r="0.4" fill="#7c2d12" opacity="0.65"/>
  <circle cx="18" cy="24" r="0.4" fill="#7c2d12" opacity="0.6"/>
  <circle cx="26" cy="17" r="0.35" fill="#7c2d12" opacity="0.65"/>
  <circle cx="16" cy="20" r="0.35" fill="#7c2d12" opacity="0.6"/>
  <path d="M7,11 Q20,4 33,11" stroke="#e8a870" stroke-width="1.2" fill="none" stroke-linecap="round" opacity="0.55"/>
</svg>
