<svg xmlns="http://www.w3.org/2000/svg" viewBox="0 0 40 40" width="40" height="40">
  <defs>
    <radialGradient id="k-bowl" cx="38%" cy="32%" r="68%"><stop offset="0%" stop-color="#f0d060"/><stop offset="50%" stop-color="#c8960a"/><stop offset="100%" stop-color="#7a5800"/></radialGradient>
    <radialGradient id="k-rim"  cx="38%" cy="32%" r="68%"><stop offset="0%" stop-color="#e8c840"/><stop offset="100%" stop-color="#a07010"/></radialGradient>
    <clipPath id="k-c1"><path d="M20,19 L33,14 A13,13 0 0,1 33,24 Z"/></clipPath>
    <clipPath id="k-c2"><path d="M20,19 L33,24 A13,13 0 0,1 20,32 Z"/></clipPath>
    <clipPath id="k-c3"><path d="M20,19 L20,32 A13,13 0 0,1 7,24 Z"/></clipPath>
    <clipPath id="k-c4"><path d="M20,19 L7,24 A13,13 0 0,1 7,14 Z"/></clipPath>
    <clipPath id="k-c5"><path d="M20,19 L7,14 A13,13 0 0,1 20,6 Z"/></clipPath>
    <clipPath id="k-c6"><path d="M20,19 L20,6 A13,13 0 0,1 33,14 Z"/></clipPath>
  </defs>
  <ellipse cx="20" cy="37" rx="13" ry="2" fill="#000" opacity="0.2"/>
  <circle cx="20" cy="19" r="17" fill="url(#k-bowl)"/>
  <circle cx="20" cy="19" r="14.5" fill="url(#k-rim)"/>
  <circle cx="20" cy="19" r="13" fill="#f0e8d0"/>
  <path d="M20,19 L33,14 A13,13 0 0,1 33,24 Z" fill="#fb923c" opacity="0.15"/>
  <path d="M20,19 L33,24 A13,13 0 0,1 20,32 Z" fill="#16a34a" opacity="0.15"/>
  <path d="M20,19 L20,32 A13,13 0 0,1 7,24 Z" fill="#eab308" opacity="0.15"/>
  <path d="M20,19 L7,24 A13,13 0 0,1 7,14 Z" fill="#4ade80" opacity="0.15"/>
  <path d="M20,19 L7,14 A13,13 0 0,1 20,6 Z" fill="#92400e" opacity="0.15"/>
  <path d="M20,19 L20,6 A13,13 0 0,1 33,14 Z" fill="#fde68a" opacity="0.15"/>
  <!-- 당근 -->
  <g clip-path="url(#k-c1)" stroke="#fb923c" stroke-width="1.1" fill="none" stroke-linecap="round">
    <path d="M26.6,16.6 C28.0,14.5 30.0,15.8 32.2,14.6"/>
    <path d="M26.9,17.8 C28.2,15.9 30.4,17.2 32.7,16.8"/>
    <path d="M27.0,19.0 C28.5,17.4 30.5,20.6 33.0,19.0"/>
    <path d="M26.9,20.2 C28.2,22.1 30.4,20.8 32.7,21.2"/>
    <path d="M26.6,21.4 C28.0,23.5 30.0,22.2 32.2,23.4"/>
  </g>
  <!-- 시금치 -->
  <g clip-path="url(#k-c2)" stroke="#16a34a" stroke-width="1.1" fill="none" stroke-linecap="round">
    <path d="M26.1,22.5 C27.6,20.8 30.2,24.0 31.3,25.5"/>
    <path d="M25.2,23.7 C26.0,21.8 28.2,26.2 28.9,27.7"/>
    <path d="M23.8,24.9 C24.8,23.0 26.2,28.2 27.1,29.9"/>
    <path d="M22.2,25.7 C22.8,23.8 23.5,29.0 24.0,30.6"/>
    <path d="M21.0,25.9 C21.2,24.0 22.2,29.8 21.8,31.8"/>
  </g>
  <!-- 무/숙주 -->
  <g clip-path="url(#k-c3)" stroke="#d4a017" stroke-width="1.1" fill="none" stroke-linecap="round">
    <path d="M19.4,26.0 C20.6,24.3 17.8,30.0 18.9,32.0"/>
    <path d="M18.0,25.7 C19.5,24.0 15.2,29.5 16.2,31.4"/>
    <path d="M16.3,24.9 C18.0,23.2 11.8,27.8 13.1,30.0"/>
    <path d="M14.9,23.8 C16.6,22.2 9.2,26.2 10.5,27.9"/>
    <path d="M13.9,22.5 C15.6,21.0 7.5,23.8 8.8,25.5"/>
  </g>
  <!-- 호박 -->
  <g clip-path="url(#k-c4)" stroke="#4ade80" stroke-width="1.1" fill="none" stroke-linecap="round">
    <path d="M13.4,21.4 C12.0,23.5 9.2,21.2 7.8,23.4"/>
    <path d="M13.1,20.2 C11.5,22.0 8.6,19.5 7.2,21.2"/>
    <path d="M13.0,19.0 C11.5,17.3 8.5,20.7 7.0,19.0"/>
    <path d="M13.1,17.8 C11.5,16.0 8.6,18.5 7.2,16.8"/>
    <path d="M13.4,16.6 C12.0,14.5 9.2,17.8 7.8,14.6"/>
  </g>
  <!-- 고사리 -->
  <g clip-path="url(#k-c5)" stroke="#b45309" stroke-width="1.1" fill="none" stroke-linecap="round">
    <path d="M13.9,15.5 C12.2,17.2 9.8,10.8 8.8,12.5"/>
    <path d="M14.8,14.3 C13.0,15.8 11.8,8.5 10.3,10.3"/>
    <path d="M16.2,13.1 C14.2,14.8 13.8,6.5 12.9,8.1"/>
    <path d="M17.8,12.3 C15.8,13.8 16.8,7.0 16.0,8.0"/>
    <path d="M19.0,12.1 C17.4,13.2 18.8,6.5 18.2,6.1"/>
  </g>
  <!-- 콩나물 -->
  <g clip-path="url(#k-c6)" stroke="#ca8a04" stroke-width="1.1" fill="none" stroke-linecap="round">
    <path d="M21.0,12.1 C22.2,13.5 20.8,6.5 21.8,6.1"/>
    <path d="M22.4,12.4 C23.8,14.2 23.8,7.2 24.4,6.8"/>
    <path d="M24.0,13.3 C25.8,15.2 26.8,8.8 27.5,8.4"/>
    <path d="M25.2,14.3 C27.0,16.2 29.2,10.8 29.7,10.3"/>
    <path d="M26.1,15.5 C27.8,17.2 31.5,12.8 31.3,12.5"/>
  </g>
  <circle cx="20" cy="19" r="7" fill="#5c2d0a"/>
  <circle cx="20" cy="19" r="6.5" fill="#7c3d15"/>
  <circle cx="20" cy="19" r="5" fill="#b91c1c"/>
  <circle cx="20" cy="19" r="3.5" fill="#f97316"/>
  <circle cx="20" cy="19" r="2.8" fill="#fbbf24"/>
  <circle cx="18.8" cy="17.8" r="1" fill="#fef08a" opacity="0.7"/>
  <circle cx="20" cy="19" r="17" fill="none" stroke="#c8a840" stroke-width="0.8" opacity="0.7"/>
  <path d="M7,8 Q20,3 33,8" stroke="#f5e090" stroke-width="1.5" fill="none" stroke-linecap="round" opacity="0.5"/>
</svg>
